<svg xmlns="http://www.w3.org/2000/svg" viewBox="0 0 60 60" width="60" height="60" fill="none">
  <!-- MongoDB Leaf Outline Dark Mode -->
  <path d="M30 6C30 6 14 18 14 33C14 42 21 49 30 54C39 49 46 42 46 33C46 18 30 6 30 6Z" fill="#00ED64" fill-opacity="0.12" stroke="#00ED64" stroke-width="2.5" stroke-linejoin="round"/>
  <!-- Central Leaf Spine -->
  <path d="M30 6V54" stroke="#00ED64" stroke-width="1.5" stroke-linecap="round" stroke-opacity="0.4"/>
  <!-- Vector Nodes Network -->
  <path d="M22 24L30 18L38 24L30 30Z" stroke="#00ED64" stroke-width="2" fill="#001E2B"/>
  <path d="M22 36L30 30L38 36L30 42Z" stroke="#13AA52" stroke-width="2" stroke-linejoin="round"/>
  <!-- Neural Vector Points -->
  <circle cx="30" cy="18" r="3" fill="#00ED64"/>
  <circle cx="22" cy="24" r="2.5" fill="#FFFFFF"/>
  <circle cx="38" cy="24" r="2.5" fill="#FFFFFF"/>
  <circle cx="30" cy="30" r="3.5" fill="#00ED64" stroke="#FFFFFF" stroke-width="1.5"/>
  <circle cx="22" cy="36" r="2.5" fill="#FFFFFF"/>
  <circle cx="38" cy="36" r="2.5" fill="#FFFFFF"/>
  <!-- Search Magnifier Overlay -->
  <circle cx="39" cy="39" r="8" fill="#001E2B" stroke="#00ED64" stroke-width="2.5"/>
  <circle cx="39" cy="39" r="4.5" stroke="#FFFFFF" stroke-width="1.5"/>
  <path d="M45 45L53 53" stroke="#00ED64" stroke-width="3" stroke-linecap="round"/>
</svg>
